<svg xmlns="http://www.w3.org/2000/svg" width="48" height="48" viewBox="0 0 48 48">
    <g transform="translate(-164 -1131)">
        <circle data-name="타원 154" cx="24" cy="24" r="24" transform="translate(164 1131)" style="fill:#6f33f9"/>
        <path data-name="패스 254" d="M22 11.067A11 11 0 1 0 9.281 22v-7.734H6.488v-3.2h2.793V8.629c0-2.774 1.642-4.306 4.155-4.306a16.816 16.816 0 0 1 2.462.216v2.724h-1.387a1.6 1.6 0 0 0-1.793 1.728v2.076h3.052l-.488 3.2h-2.563V22A11.049 11.049 0 0 0 22 11.067z" transform="translate(177 1144)" style="fill:#fff"/>
    </g>
</svg>
