<svg xmlns="http://www.w3.org/2000/svg" width="24" height="24" viewBox="0 0 24 24">
    <g data-name="그룹 824">
        <path data-name="패스 64" d="M97.623 127.517h-2.1v-4.044a1.661 1.661 0 0 0-1.255-1.717h-7.481a1.66 1.66 0 0 0-1.252 1.717v4.044h-2.1v-4.044a3.769 3.769 0 0 1 3.051-3.8l.186-.017 7.9.017a3.769 3.769 0 0 1 3.051 3.8z" transform="translate(-78.434 -106.967)" style="fill:#6f33f9"/>
        <path data-name="패스 65" d="M90.528 118.113a4.073 4.073 0 1 1 4.072-4.073 4.077 4.077 0 0 1-4.072 4.073zm0-6.044a1.971 1.971 0 1 0 1.972 1.971 1.974 1.974 0 0 0-1.972-1.971z" transform="translate(-78.434 -106.967)" style="fill:#6f33f9"/>
    </g>
</svg>
