<svg xmlns="http://www.w3.org/2000/svg" width="432" height="323" viewBox="0 0 432 323">
    <defs>
        <clipPath id="6tacdobn7a">
            <path data-name="사각형 13767" style="fill:none" d="M0 0h336.146v291.546H0z"/>
        </clipPath>
        <clipPath id="ilogsx26ub">
            <path data-name="사각형 13759" style="fill:#fffbf4" d="M0 0h57.393v57.393H0z"/>
        </clipPath>
        <clipPath id="km3a5z39oc">
            <path data-name="사각형 13760" style="fill:#fffbf4" d="M0 0h11.938v11.938H0z"/>
        </clipPath>
        <clipPath id="9g2zdj649d">
            <path data-name="사각형 13761" style="fill:#fffbf4" d="M0 0h6.879v6.879H0z"/>
        </clipPath>
        <clipPath id="6gs5v0lvle">
            <path data-name="사각형 13762" style="fill:#fffbf4" d="M0 0h3.777v3.777H0z"/>
        </clipPath>
        <clipPath id="9vv27fmv7f">
            <path data-name="사각형 13763" style="fill:#fffbf4" d="M0 0h77.559v77.559H0z"/>
        </clipPath>
        <clipPath id="a1mvg4agfg">
            <path data-name="사각형 13764" style="fill:#fffbf4" d="M0 0h17.063v17.063H0z"/>
        </clipPath>
        <clipPath id="9y0ue04jyh">
            <path data-name="사각형 13766" style="fill:#fffbf4" d="M0 0h3.575v3.574H0z"/>
        </clipPath>
        <clipPath id="fwwkx43dli">
            <path data-name="패스 50173" d="M53.9 220.02a11.277 11.277 0 1 0 11.277-11.276A11.277 11.277 0 0 0 53.9 220.02" transform="translate(-53.897 -208.744)" style="fill:none"/>
        </clipPath>
        <clipPath id="d90w5vle7j">
            <path data-name="패스 50176" d="M122.717 220.02a11.277 11.277 0 1 0 11.276-11.276 11.277 11.277 0 0 0-11.276 11.276" transform="translate(-122.717 -208.744)" style="fill:none"/>
        </clipPath>
        <clipPath id="s6ycyv89ek">
            <path data-name="패스 50232" d="M356.069 222.545a10.51 10.51 0 1 0 10.511-10.51 10.511 10.511 0 0 0-10.511 10.51" transform="translate(-356.069 -212.035)" style="fill:none"/>
        </clipPath>
        <clipPath id="d0wzl4kdal">
            <path data-name="패스 50235" d="M291.924 222.545a10.51 10.51 0 1 0 10.51-10.51 10.511 10.511 0 0 0-10.51 10.51" transform="translate(-291.924 -212.035)" style="fill:none"/>
        </clipPath>
    </defs>
    <path data-name="사각형 13778" style="opacity:.002;fill:#fff" d="M0 0h432v323H0z"/>
    <g data-name="img_01">
        <path data-name="사각형 13758" transform="translate(46)" style="opacity:.003;fill:#fff" d="M0 0h341v296H0z"/>
        <g data-name="그룹 4337">
            <g data-name="그룹 4320">
                <g data-name="그룹 4319" style="clip-path:url(#6tacdobn7a)" transform="translate(48 3.276)">
                    <g data-name="그룹 4297" style="isolation:isolate">
                        <g data-name="그룹 4296">
                            <g data-name="그룹 4295" style="clip-path:url(#ilogsx26ub)" transform="translate(163.968 73.681)">
                                <path data-name="패스 50149" d="M268.805 123.7a28.7 28.7 0 1 1-28.7-28.7 28.7 28.7 0 0 1 28.7 28.7" transform="translate(-211.412 -95)" style="fill:#fffbf4"/>
                            </g>
                        </g>
                    </g>
                    <g data-name="그룹 4300" style="isolation:isolate">
                        <g data-name="그룹 4299">
                            <g data-name="그룹 4298" style="clip-path:url(#km3a5z39oc)" transform="translate(180.929 123.318)">
                                <path data-name="패스 50150" d="M245.219 164.969a5.969 5.969 0 1 1-5.97-5.969 5.969 5.969 0 0 1 5.97 5.969" transform="translate(-233.281 -159)" style="fill:#fffbf4"/>
                            </g>
                        </g>
                    </g>
                    <g data-name="그룹 4303" style="isolation:isolate">
                        <g data-name="그룹 4302">
                            <g data-name="그룹 4301" style="clip-path:url(#9g2zdj649d)" transform="translate(185.785 139.808)">
                                <path data-name="패스 50151" d="M246.421 183.7a3.44 3.44 0 1 1-3.44-3.44 3.44 3.44 0 0 1 3.44 3.44" transform="translate(-239.542 -180.261)" style="fill:#fffbf4"/>
                            </g>
                        </g>
                    </g>
                    <g data-name="그룹 4306" style="isolation:isolate">
                        <g data-name="그룹 4305">
                            <g data-name="그룹 4304" style="clip-path:url(#6gs5v0lvle)" transform="translate(193.541 148.339)">
                                <path data-name="패스 50152" d="M253.319 193.15a1.889 1.889 0 1 1-1.889-1.889 1.888 1.888 0 0 1 1.889 1.889" transform="translate(-249.542 -191.261)" style="fill:#fffbf4"/>
                            </g>
                        </g>
                    </g>
                    <g data-name="그룹 4309" style="isolation:isolate">
                        <g data-name="그룹 4308">
                            <g data-name="그룹 4307" style="clip-path:url(#9vv27fmv7f)" transform="translate(99.594)">
                                <path data-name="패스 50153" d="M205.971 38.779A38.779 38.779 0 1 1 167.191 0a38.779 38.779 0 0 1 38.779 38.779" transform="translate(-128.412)" style="fill:#fffbf4"/>
                            </g>
                        </g>
                    </g>
                    <g data-name="그룹 4312" style="isolation:isolate">
                        <g data-name="그룹 4311">
                            <g data-name="그룹 4310" style="clip-path:url(#a1mvg4agfg)" transform="translate(136.823 65.149)">
                                <path data-name="패스 50154" d="M193.475 92.531A8.531 8.531 0 1 1 184.943 84a8.531 8.531 0 0 1 8.531 8.531" transform="translate(-176.412 -84)" style="fill:#fffbf4"/>
                            </g>
                        </g>
                    </g>
                    <g data-name="그룹 4315" style="isolation:isolate">
                        <g data-name="그룹 4314">
                            <g data-name="그룹 4313" style="clip-path:url(#9g2zdj649d)" transform="translate(136.148 85.517)">
                                <path data-name="패스 50155" d="M182.421 113.7a3.44 3.44 0 1 1-3.44-3.44 3.44 3.44 0 0 1 3.44 3.44" transform="translate(-175.542 -110.261)" style="fill:#fffbf4"/>
                            </g>
                        </g>
                    </g>
                    <g data-name="그룹 4318" style="isolation:isolate">
                        <g data-name="그룹 4317">
                            <g data-name="그룹 4316" style="clip-path:url(#9y0ue04jyh)" transform="translate(130.921 92.869)">
                                <path data-name="패스 50156" d="M172.378 121.527a1.787 1.787 0 1 1-1.787-1.787 1.787 1.787 0 0 1 1.787 1.787" transform="translate(-168.803 -119.74)" style="fill:#fffbf4"/>
                            </g>
                        </g>
                    </g>
                    <path data-name="패스 50157" d="M115.438 288.523s22.822 24.864 20.483 36.529l-36.305 11.369-66.016-.116 18.952-48.93z" transform="translate(-7.541 -64.491)" style="fill:#499f15"/>
                    <path data-name="패스 50158" d="M57.468 287.832s7.046 18.834 32.292 18.834 30.933-15.813 30.933-15.813-37.333-11.331-63.225-3.021" transform="translate(-12.897 -63.91)" style="fill:#ffde1d"/>
                    <path data-name="패스 50159" d="M66.871 295.317s5.421 10.389 24.841 10.389 23.8-8.723 23.8-8.723-28.72-6.25-48.639-1.666" transform="translate(-15.007 -65.896)" style="fill:#f3cfbd"/>
                    <path data-name="패스 50160" d="M61.877 288.162s5.241 14 27.374 14 26.6-7.847 26.6-7.847S84.577 282 61.877 288.162" transform="translate(-13.886 -64.28)" style="fill:#e5b4a1"/>
                    <path data-name="패스 50161" d="M117.135 323.646s4.374-8.747 16.038-6.56c4.691.879 9.468 3.316 11.813 7.648 1.946 3.594 2.364 8.294-.208 11.617a17.271 17.271 0 0 1-7.526 5.428 24.787 24.787 0 0 1-9.181 1.55l-24.96-.409s-4.2-.32-4.929-2.508a5.035 5.035 0 0 1-6.561-1.457 4.766 4.766 0 0 1-5.832-2.188h-.729l-2.187 2.188s-2.916 3.645-5.1.728c0 0-2.916-2.186 5.1-11.664 0 0 9.477-12.391 18.225-2.185z" transform="translate(-17.337 -71.08)" style="fill:#f3cfbd"/>
                    <path data-name="패스 50162" d="M128.675 325.121a61.65 61.65 0 0 1 9.477.73s-6.519-3.306-8.362-2.382z" transform="translate(-28.877 -72.554)" style="fill:#e5b4a1"/>
                    <path data-name="패스 50163" d="m108 328.372 2.916 2.187-.53-2.513z" transform="translate(-24.236 -73.618)" style="fill:#e5b4a1"/>
                    <path data-name="패스 50164" d="M152.94 341.514c-.972.265-2.145-.937-2.622-2.685s-.077-3.379.894-3.644 2.145.937 2.622 2.685.076 3.379-.894 3.644" transform="translate(-33.688 -75.212)" style="fill:#f2a39b"/>
                    <path data-name="패스 50165" d="M87.319 341.3s1.458-3.645 3.645-4.374a18.028 18.028 0 0 0-2.916 4.374z" transform="translate(-19.596 -75.611)" style="fill:#e5b4a1"/>
                    <path data-name="패스 50166" d="M27.227 171.828c-2.476 7.744-3.144 16.572-3.451 24.623-.6 15.667 1.8 32.364 10.963 45.482 12.73 18.218 37.944 25.335 59.254 22.35 20.8-2.914 35.687-17.372 40.985-37.4 4.417-16.7 3.036-34.639.078-51.456 0 0-3.367-46-56.712-47.774 0 0-36.841-.476-51.117 44.179" transform="translate(-5.316 -28.646)" style="fill:#f3cfbd"/>
                    <path data-name="패스 50167" d="M19.01 219.729c-.188-1.522-10.529-2.022-11.661-1.944-8.657.595-8.589 10.713-5.285 16.677a11.8 11.8 0 0 0 6.136 5.294c1.37.527 13.492 1.686 13.3.129l-2.489-20.156" transform="translate(0 -48.872)" style="fill:#f3cfbd"/>
                    <path data-name="패스 50168" d="M22.248 230.646s-2.573-4.5-12.035-3.778c0 0 10.024 6.254 12.655 9.761z" transform="translate(-2.292 -50.895)" style="fill:#dbad9a"/>
                    <path data-name="패스 50169" d="M170.178 218.759c.188-1.522 10.529-2.022 11.661-1.944 8.657.595 8.589 10.713 5.285 16.677a11.8 11.8 0 0 1-6.135 5.294c-1.37.527-13.492 1.686-13.3.129l2.489-20.156" transform="translate(-37.631 -48.655)" style="fill:#f3cfbd"/>
                    <path data-name="패스 50170" d="M169.5 229.677s2.573-4.5 12.035-3.779c0 0-10.024 6.254-12.655 9.761z" transform="translate(-37.899 -50.677)" style="fill:#dbad9a"/>
                    <path data-name="패스 50171" d="M76.45 220.02a11.277 11.277 0 1 1-11.276-11.276A11.276 11.276 0 0 1 76.45 220.02" transform="translate(-12.095 -46.845)" style="fill:#fff"/>
                </g>
            </g>
            <g data-name="그룹 4322">
                <g data-name="그룹 4321" style="clip-path:url(#fwwkx43dli)" transform="translate(89.802 165.175)">
                    <path data-name="패스 50172" d="M26.31 11.276a9.021 9.021 0 1 1-9.021-9.021 9.021 9.021 0 0 1 9.021 9.021"/>
                </g>
            </g>
            <g data-name="그룹 4324">
                <g data-name="그룹 4323" style="clip-path:url(#6tacdobn7a)" transform="translate(48 3.276)">
                    <path data-name="패스 50174" d="M145.269 220.02a11.277 11.277 0 1 1-11.276-11.276 11.276 11.276 0 0 1 11.276 11.276" transform="translate(-27.539 -46.845)" style="fill:#fff"/>
                </g>
            </g>
            <g data-name="그룹 4326">
                <g data-name="그룹 4325" style="clip-path:url(#d90w5vle7j)" transform="translate(143.178 165.175)">
                    <path data-name="패스 50175" d="M26.311 11.276a9.021 9.021 0 1 1-9.021-9.021 9.021 9.021 0 0 1 9.021 9.021"/>
                </g>
            </g>
            <g data-name="그룹 4328">
                <g data-name="그룹 4327" style="clip-path:url(#6tacdobn7a)" transform="translate(48 3.276)">
                    <path data-name="패스 50177" d="M47.442 146.256c.855-1.436 2.964-2.721 4.4-3.437a7.571 7.571 0 0 1 5.591-.532 4.03 4.03 0 0 1 2.678 2.186 1.9 1.9 0 0 1-1.025 2.338c-1.01.34-1.623-.509-2.4-.953-2.844-1.626-5.32.433-7.932 1.453-.005 0-2.523.985-1.308-1.056"/>
                    <path data-name="패스 50178" d="M113.239 146.256c-.855-1.436-2.964-2.721-4.4-3.437a7.571 7.571 0 0 0-5.591-.532 4.03 4.03 0 0 0-2.678 2.186 1.9 1.9 0 0 0 1.025 2.338c1.01.34 1.623-.509 2.4-.953 2.844-1.626 5.32.433 7.932 1.453.005 0 2.523.985 1.308-1.056"/>
                    <path data-name="패스 50179" d="M104.214 246.229a.688.688 0 0 1-.309-1.3 9.4 9.4 0 0 0 4.672-7.024c.083-.472.054-.828-.08-.95-.31-.286-1.4 0-1.867.118a2.963 2.963 0 0 1-.71.137c-.351.035-2.58.786-4.431 1.462a.68.68 0 0 1-.682-.122.688.688 0 0 1-.229-.655c.837-4.275 2.173-11.285 2.2-11.9a.7.7 0 0 1 .687-.672h.012a.68.68 0 0 1 .676.678c0 .669-1.37 7.792-1.989 10.971a23.469 23.469 0 0 1 3.76-1.135c.061-.008.2-.047.364-.091.853-.221 2.284-.6 3.146.2a2.294 2.294 0 0 1 .5 2.2 10.748 10.748 0 0 1-5.408 8.013.68.68 0 0 1-.309.074" transform="translate(-22.569 -50.565)" style="fill:#e5b4a1"/>
                    <path data-name="패스 50180" d="M97.245 260.236c-6.141 0-13.471-1.6-21.881-6.184a.688.688 0 1 1 .658-1.208c26.752 14.581 41.623-1.423 42.242-2.111a.687.687 0 0 1 1.023.918c-.11.124-7.929 8.584-22.043 8.584" transform="translate(-16.832 -56.217)" style="fill:#e5b4a1"/>
                    <path data-name="패스 50181" d="M72.115 256.173a.7.7 0 0 1-.217-.035.688.688 0 0 1-.435-.871c.8-2.408 5.051-5.294 5.532-5.616a.688.688 0 0 1 .764 1.145c-1.2.8-4.437 3.244-4.992 4.908a.688.688 0 0 1-.652.469" transform="translate(-16.029 -55.999)" style="fill:#e5b4a1"/>
                    <path data-name="패스 50182" d="M157.137 248.149c0 2.491-3.366 4.511-7.518 4.511s-7.518-2.02-7.518-4.511 3.366-4.511 7.518-4.511 7.518 2.02 7.518 4.511" transform="translate(-31.89 -54.676)" style="fill:#f2a39b"/>
                    <path data-name="패스 50183" d="M61.178 248.149c0 2.491-3.366 4.511-7.518 4.511s-7.518-2.02-7.518-4.511 3.366-4.511 7.518-4.511 7.518 2.02 7.518 4.511" transform="translate(-10.355 -54.676)" style="fill:#f2a39b"/>
                    <path data-name="패스 50184" d="M21.9 199.619s-.507 15.911 3.56 22.543c.2.333 3.962-23.091 3.962-23.091z" transform="translate(-4.91 -44.674)" style="fill:#442e03"/>
                    <path data-name="패스 50185" d="M170.817 190.084s.673 21.116-4.724 29.916c-.271.441-5.255-30.637-5.255-30.637z" transform="translate(-36.094 -42.495)" style="fill:#442e03"/>
                    <path data-name="패스 50186" d="M63.193 155.843s0-15.81 9.485-12.647c0 0 4.743 1.581 3.952 10.276 0 0-1.276 20.084 18.729 22.294l-4.5-9.647s-1.332 6.645 16.328 9.647l-2.1-6.485s7.9 14.229 37.942-.79c0 0-10.276-3.162-9.485-3.162s11.635-.257 17.279-6.057c0 0-7.7-1.893-12.092-16.494 0 0-19.947-58.9-81.592-23.565a22.7 22.7 0 0 1-2.107-1.1 18.132 18.132 0 0 0-6.342-1.312c-7.755-.247-15.523 3.893-20.939 9.233-5.1 5.027-7.641 11.764-8.106 18.833-.344 5.225-.7 10.477-3.611 15A15.431 15.431 0 0 1 4.7 166.85s3.952 5.593 12.647 4.012l-11.056 7.509c.179-.122 1.474.359 1.684.4 1.51.327 3.038.577 4.571.765a44 44 0 0 0 14-.35 25.555 25.555 0 0 0 12.554-6.143 22.27 22.27 0 0 0 4.795-6.493c2.226-4.619 2.22-10.166 6.612-13.493s9.288-.617 12.691 2.786" transform="translate(-1.054 -24.22)" style="fill:#755000"/>
                    <path data-name="패스 50187" d="M75.77 168.4s-9.719-3.02-15.028-.28c0 0 5.293-9.7 15.028.28" transform="translate(-13.631 -36.78)" style="fill:#442e03"/>
                    <path data-name="패스 50188" d="M80.118 165.927s6.617-5.7 13.438-2.372c0 0 1.542-11.154-6.719-10.679 0 0-6.758-1.028-6.719 13.051" transform="translate(-17.98 -34.304)" style="fill:#442e03"/>
                    <path data-name="패스 50189" d="M117.771 187.034a71.647 71.647 0 0 1-3.236-6.616 32.209 32.209 0 0 1-8.126-13.837 11.08 11.08 0 0 1-.632-4.087 4.652 4.652 0 0 1 1.968-3.61 2.5 2.5 0 0 1 1.582-.417 3.171 3.171 0 0 1 2.215 2.011c1.313 2.753 1.35 5.867 1.385 8.879a40.264 40.264 0 0 0 .257 4.906 24.6 24.6 0 0 0 1.655 5.928l.152.145a22.136 22.136 0 0 0 14.6 6.256l-.006.376a22.409 22.409 0 0 1-14.394-5.936c.866 2 1.9 3.926 2.908 5.825zm-8.671-28.2a2.223 2.223 0 0 0-1.153.371 4.279 4.279 0 0 0-1.795 3.323 10.76 10.76 0 0 0 .616 3.946 32.251 32.251 0 0 0 7.424 13.072 24.106 24.106 0 0 1-1.378-5.23 40.531 40.531 0 0 1-.261-4.953c-.035-2.971-.071-6.043-1.348-8.721-.364-.762-.991-1.692-1.92-1.8a1.647 1.647 0 0 0-.184-.01" transform="translate(-23.733 -35.56)" style="fill:#960"/>
                    <path data-name="패스 50190" d="M15.1 177.453a23.175 23.175 0 0 1-9.791-2.15l.159-.339A22.911 22.911 0 0 0 21 176.3a22.89 22.89 0 0 0 12.683-9.054 46.064 46.064 0 0 0 4.263-8.692c1.454-3.58 2.959-7.282 5.469-10.292a11.225 11.225 0 0 1 3.358-2.862 9.836 9.836 0 0 1 9.886.97 15.72 15.72 0 0 1 5.691 8.431l-.359.109a15.363 15.363 0 0 0-5.547-8.232 9.449 9.449 0 0 0-9.5-.945A10.863 10.863 0 0 0 43.7 148.5c-2.474 2.967-3.966 6.641-5.41 10.193a46.32 46.32 0 0 1-4.3 8.763 23.254 23.254 0 0 1-12.893 9.2 22.76 22.76 0 0 1-5.994.795" transform="translate(-1.192 -32.423)" style="fill:#960"/>
                    <path data-name="패스 50191" d="M16.055 191.326a38.558 38.558 0 0 1-7.9-.824l.077-.368a35.641 35.641 0 0 0 21.45-1.934A28.355 28.355 0 0 0 44.7 173.086c.244-.61.47-1.244.688-1.856a19.266 19.266 0 0 1 2.279-4.892 9.854 9.854 0 0 1 7.848-4.035h.022a9.86 9.86 0 0 1 7.847 3.994l-.3.223a9.476 9.476 0 0 0-7.543-3.841h-.02a9.469 9.469 0 0 0-7.544 3.879 18.994 18.994 0 0 0-2.23 4.8c-.22.617-.447 1.253-.693 1.871a28.73 28.73 0 0 1-15.217 15.317 34.377 34.377 0 0 1-13.777 2.784" transform="translate(-1.831 -36.423)" style="fill:#960"/>
                    <path data-name="패스 50192" d="M137.706 175.835c-8.419 0-15.754-3.993-19.789-11.013-2.414-4.2-3.749-8.915-5.041-13.469a87.025 87.025 0 0 0-2.984-9.213c-2.861-6.994-7.557-11.738-12.882-13.014a21.18 21.18 0 0 0-5.246-.443 19.275 19.275 0 0 0-6.079.921 12.189 12.189 0 0 0-7.785 10.189l-.375-.031a12.575 12.575 0 0 1 8.036-10.511 19.649 19.649 0 0 1 6.2-.943 21.547 21.547 0 0 1 5.341.455c5.444 1.3 10.235 6.128 13.142 13.236a87.471 87.471 0 0 1 3 9.254c1.284 4.533 2.613 9.219 5 13.383 4.681 8.15 13.9 12.147 24.056 10.433a18.374 18.374 0 0 0 7.042-2.665l.2.316a18.738 18.738 0 0 1-7.184 2.72 28.021 28.021 0 0 1-4.656.4" transform="translate(-17.397 -28.792)" style="fill:#960"/>
                    <path data-name="패스 50193" d="M158.145 163.075c-.788 0-1.553-.022-2.285-.053a47.5 47.5 0 0 1-15.912-3.092c-8.9-3.593-14.3-10.649-17.5-22.88-1.484-5.668-3.573-11.443-8.756-15.283-4.749-3.517-11.639-5.189-18.419-4.476a33.053 33.053 0 0 0-19.957 10.054l-.271-.259a33.411 33.411 0 0 1 20.188-10.167c6.882-.719 13.861.976 18.682 4.546 5.277 3.909 7.394 9.755 8.9 15.489 3.17 12.1 8.5 19.082 17.279 22.628a47.122 47.122 0 0 0 15.786 3.064 27.977 27.977 0 0 0 9.115-.8l.107.359a24.394 24.394 0 0 1-6.952.872" transform="translate(-16.841 -26.202)" style="fill:#960"/>
                    <path data-name="패스 50194" d="m13.307 171.71-.01-.376a15.519 15.519 0 0 0 10.066-4.177 12.467 12.467 0 0 1-6.493 1.425l-1.159-.066 1.121-.3a16.306 16.306 0 0 0 8.9-6.873 42.819 42.819 0 0 0 4.73-10.514c1-2.978 1.812-5.6 2.478-8.027l.194-.714a29.249 29.249 0 0 1 1.928-5.583 15.074 15.074 0 0 1 13.119-8.031c.2 0 .4 0 .6.013a15.043 15.043 0 0 1 12.938 9.222l-.349.14a14.657 14.657 0 0 0-12.606-8.985 14.684 14.684 0 0 0-13.364 7.812 29.012 29.012 0 0 0-1.9 5.511l-.195.715c-.668 2.431-1.481 5.062-2.483 8.047a43.212 43.212 0 0 1-4.775 10.605 17.263 17.263 0 0 1-7.992 6.664 12.07 12.07 0 0 0 6.348-2.123l1.24-.859-.991 1.136a15.868 15.868 0 0 1-11.337 5.341" transform="translate(-2.984 -28.831)" style="fill:#960"/>
                    <path data-name="패스 50195" d="M106.073 272.338c-.525.589-.121 1.577.535 2.013a3.368 3.368 0 0 0 3.679-.292 6.621 6.621 0 0 0 2.217-2.682c-.771.043-6.056.541-6.43.96" transform="translate(-23.75 -60.901)" style="fill:#e5b4a1"/>
                    <path data-name="패스 50196" d="M177.144 163.421c-3.395-.008-6.444-1.868-9.527-3.935-2.387-1.6-4.626-3.14-6.692-4.782q.112 1.254.142 2.51l-.376.009q-.034-1.425-.174-2.846a39.482 39.482 0 0 1-4.258-3.963c-2.588-2.818-5.767-7.355-6.2-12.974a3.887 3.887 0 0 1 .755-2.785 1.471 1.471 0 0 1 1.106-.489h.031a2.687 2.687 0 0 1 1.953 1.408 39.461 39.461 0 0 1 6.974 18.609c2.134 1.72 4.462 3.319 6.952 4.99 3.033 2.037 6.028 3.864 9.319 3.873zm-25.226-28.88a1.109 1.109 0 0 0-.833.371 3.539 3.539 0 0 0-.655 2.5c.429 5.511 3.557 9.974 6.1 12.749a38.783 38.783 0 0 0 3.924 3.684 39.081 39.081 0 0 0-6.865-18.054c-.434-.61-.968-1.235-1.654-1.248z" transform="translate(-33.672 -30.109)" style="fill:#960"/>
                    <path data-name="패스 50197" d="M42.991 270.5a5.9 5.9 0 0 0 .444 1.9c.5.828 1.6 1.008 2.461 1.454a3.915 3.915 0 0 1 1.727 1.8c.316.674.468 1.481 1.059 1.934a7.462 7.462 0 0 0 .959.5 4.406 4.406 0 0 1 1.779 3.012 2.035 2.035 0 0 0 .44 1.02 2.515 2.515 0 0 0 .717.418 4.367 4.367 0 0 1 2.16 5.162 1.812 1.812 0 0 1-.479.8 2.236 2.236 0 0 1-1.415.4 18.959 18.959 0 0 1-10.528-2.247 11.924 11.924 0 0 1-5.721-8.315 19.614 19.614 0 0 1-.086-3.572 10.987 10.987 0 0 1 .254-2.244 11.433 11.433 0 0 1 1.323-2.872 5.322 5.322 0 0 1 1.087-1.462c1.447-1.222 3.513.907 3.821 2.32" transform="translate(-8.184 -60.103)" style="fill:#e5b4a1"/>
                    <path data-name="패스 50198" d="M32.929 290.143s-10.206-6.561-2.187-20.412c0 0 2.916-4.374 5.832-2.915 0 0 2.915 1.458 1.457 5.1l-1.021 3.894c.156-.594 1.383-1.349 1.861-1.619a3.327 3.327 0 0 1 4.248 1 3.963 3.963 0 0 1 .015 4.014s4.738-2.551 4.626 4.241a3.37 3.37 0 0 1 3.5 3.272c.147 1.094-.092 2.248 0 3.346.368 4.435 1.531 8.542 1.032 13.032a39.31 39.31 0 0 1-5.715 15.635c-2.522 4.279-5.611 8.6-9.841 11.335A15.214 15.214 0 0 1 33.7 331.6c-3.4 1.246-7.36 1.264-9.612-2.013a14.81 14.81 0 0 1-2.095-8.1 44.066 44.066 0 0 1 3.975-18.125c1.614-3.547 3.762-6.824 5.5-10.305l1.458-2.916" transform="translate(-4.936 -59.811)" style="fill:#f3cfbd"/>
                    <path data-name="패스 50199" d="M32.665 344.375c-.3.961-1.945 1.3-3.675.762s-2.89-1.757-2.59-2.718 1.945-1.3 3.674-.762 2.888 1.757 2.588 2.718" transform="translate(-5.915 -76.615)" style="fill:#f2a39b"/>
                    <path data-name="패스 50200" d="m41.942 298.8-6.2-1.823-1.2 2.405z" transform="translate(-7.752 -66.646)" style="fill:#e5b4a1"/>
                    <path data-name="패스 50201" d="M289.069 337.735s1.609-30.662 15.311-45.8h62.5s14.891 21.709 17.137 45.8z" transform="translate(-64.871 -65.515)" style="fill:#0a4088"/>
                    <path data-name="패스 50202" d="M306.984 292.52c.187 0 4.376 8.962 4.852 9.656 3.364 4.9 8.438 9.3 14.787 8.431 4.539-.622 7.873-3.794 11.392-6.447l-17.686-11.64z" transform="translate(-68.892 -65.646)" style="fill:#fff"/>
                    <path data-name="패스 50203" d="M376.383 292.52c-.136 0-1.206 3.043-1.3 3.258a39.877 39.877 0 0 1-4.02 7.068c-3.813 5.269-9.481 9.241-16.221 7.352-3.634-1.018-6.531-3.809-9.487-6.038l17.687-11.64z" transform="translate(-77.502 -65.646)" style="fill:#fff"/>
                    <path data-name="패스 50204" d="M348.133 319.859a2.125 2.125 0 1 1-2.126-2.125 2.125 2.125 0 0 1 2.126 2.125" transform="translate(-77.172 -71.304)" style="fill:#fff"/>
                    <path data-name="패스 50205" d="M348.133 331.553a2.125 2.125 0 1 1-2.126-2.126 2.126 2.126 0 0 1 2.126 2.126" transform="translate(-77.172 -73.928)" style="fill:#fff"/>
                    <path data-name="패스 50206" d="M321.476 295.417s5.341 9.649 21.208 8.207 18.675-10.2 18.675-10.2-24.012-3.916-39.882 2" transform="translate(-72.144 -65.562)" style="fill:#f3cfbd"/>
                    <path data-name="패스 50207" d="M312.155 287.505s6.042 13.109 26.359 11.264 23.727-9.81 23.727-9.81-29.79-9.311-50.086-1.454" transform="translate(-70.052 -63.813)" style="fill:#e5b4a1"/>
                    <path data-name="패스 50208" d="M276.685 232.472s-28.2 29.539-5.944 51.406l2.1-6.714s7.751 9.025 1.873 19.29c0 0 5.164.073 15.388-5.679 0 0 11.663-4.06 13.635-18.979s-17.266-38.267-17.266-38.267z" transform="translate(-58.838 -52.17)" style="fill:#352424"/>
                    <path data-name="패스 50209" d="m385.676 120.153 21.256 67.4-1.441 9.368 6.384 9.119c.016-.659.06-1.445.137-2.378l1.478 4.685c22.063-63.874-27.813-88.193-27.813-88.193" transform="translate(-86.551 -26.964)" style="fill:#352424"/>
                    <path data-name="패스 50210" d="m421.069 233.2-1.615-2.307c-.129 5.417 1.615 2.307 1.615 2.307" transform="translate(-94.13 -51.815)" style="fill:#352424"/>
                    <path data-name="패스 50211" d="M283.12 126.9s-29.029 19.845-21.312 76.543c0 0 2.975 16.689.587 31.255 0 0 13.565-9.327 13.066-12.336s-1.783-43.524-1.783-43.524" transform="translate(-58.461 -28.477)" style="fill:#352424"/>
                    <path data-name="패스 50212" d="M402.093 218.052s25.923 40.723 3.665 62.59l-2.1-6.713s-7.751 9.025-1.873 19.29c0 0-5.164.073-15.388-5.679 0 0-11.663-4.06-13.636-18.979s17.266-38.267 17.266-38.267z" transform="translate(-83.622 -48.934)" style="fill:#352424"/>
                    <path data-name="패스 50213" d="M291.927 149.871a10.648 10.648 0 0 0-4.1-3.2 7.059 7.059 0 0 0-5.212-.5 3.758 3.758 0 0 0-2.5 2.037 1.767 1.767 0 0 0 .955 2.18c.941.316 1.512-.475 2.237-.889 2.651-1.516 4.959.4 7.394 1.354 0 0 2.352.918 1.219-.983"/>
                    <path data-name="패스 50214" d="M230.598 149.871a10.648 10.648 0 0 1 4.1-3.2 7.059 7.059 0 0 1 5.212-.5 3.758 3.758 0 0 1 2.5 2.037 1.767 1.767 0 0 1-.955 2.18c-.942.316-1.512-.475-2.237-.889-2.651-1.516-4.959.4-7.394 1.354 0 0-2.352.918-1.219-.983"/>
                    <path data-name="패스 50215" d="M377.256 177.626c2.307 7.218 2.93 15.447 3.216 22.95.556 14.6-1.674 30.165-10.218 42.393-11.866 16.98-35.367 23.614-55.229 20.832-19.388-2.716-33.263-16.192-38.2-34.863-4.117-15.567-2.829-32.288-.073-47.961 0 0 3.138-42.872 52.861-44.53 0 0 34.338-.444 47.645 41.178" transform="translate(-61.532 -30.621)" style="fill:#f3cfbd"/>
                    <path data-name="패스 50216" d="M409.892 222.273c.175-1.419 9.814-1.885 10.869-1.813 8.068.555 8.006 9.986 4.926 15.545a10.992 10.992 0 0 1-5.718 4.934c-1.277.492-12.575 1.571-12.4.119l2.32-18.786" transform="translate(-91.465 -49.473)" style="fill:#f3cfbd"/>
                    <path data-name="패스 50217" d="M409.26 232.45s2.4-4.191 11.217-3.522c0 0-9.343 5.83-11.8 9.1z" transform="translate(-91.714 -51.359)" style="fill:#dbad9a"/>
                    <path data-name="패스 50218" d="M284.642 248.763c0 2.322 3.137 4.2 7.007 4.2s7.007-1.882 7.007-4.2-3.137-4.2-7.007-4.2-7.007 1.882-7.007 4.2" transform="translate(-63.878 -54.883)" style="fill:#f2a39b"/>
                    <path data-name="패스 50219" d="M372.331 248.763c0 2.322 3.137 4.2 7.007 4.2s7.007-1.882 7.007-4.2-3.137-4.2-7.007-4.2-7.007 1.882-7.007 4.2" transform="translate(-83.556 -54.883)" style="fill:#f2a39b"/>
                    <path data-name="패스 50220" d="M333.729 246.972a.648.648 0 0 1-.288-.068 10.023 10.023 0 0 1-5.041-7.469 2.137 2.137 0 0 1 .468-2.052c.8-.741 2.137-.395 2.933-.187a3.515 3.515 0 0 0 .361.086 22.365 22.365 0 0 1 3.479 1.056c-.576-2.963-1.853-9.6-1.853-10.225a.641.641 0 0 1 1.281 0c.023.585 1.267 7.111 2.047 11.092a.642.642 0 0 1-.85.725 43.5 43.5 0 0 0-4.15-1.363 1.628 1.628 0 0 1-.641-.125c-.434-.114-1.45-.378-1.74-.112-.124.115-.152.446-.074.887a8.768 8.768 0 0 0 4.355 6.545.641.641 0 0 1-.288 1.215m1.341-18.86z" transform="translate(-73.684 -51.048)" style="fill:#e5b4a1"/>
                    <path data-name="패스 50221" d="M330.723 261.491c-10.016 0-14.317-5.473-14.586-5.829a.641.641 0 0 1 1.022-.774 15.137 15.137 0 0 0 7.885 4.567c5.055 1.319 13.815 1.4 26.848-5.706a.641.641 0 1 1 .614 1.125c-9.145 4.984-16.317 6.617-21.785 6.617" transform="translate(-70.917 -56.928)" style="fill:#e5b4a1"/>
                    <path data-name="패스 50222" d="M364.4 256.245a.639.639 0 0 1-.607-.439c-.518-1.553-3.534-3.828-4.654-4.574a.641.641 0 0 1 .711-1.067c.448.3 4.411 2.99 5.158 5.236a.64.64 0 0 1-.406.811.629.629 0 0 1-.2.033" transform="translate(-80.532 -56.116)" style="fill:#e5b4a1"/>
                    <path data-name="패스 50223" d="M334.494 271.309c.489.548.113 1.471-.5 1.878a3.141 3.141 0 0 1-3.429-.273 6.176 6.176 0 0 1-2.066-2.5c.718.04 5.645.5 5.994.895" transform="translate(-73.72 -60.685)" style="fill:#e5b4a1"/>
                    <path data-name="패스 50224" d="M233.496 166.36a.625.625 0 0 1-.342-.1 4.737 4.737 0 0 1-2.338-3.965.626.626 0 0 1 .664-.617.642.642 0 0 1 .617.661 3.47 3.47 0 0 0 1.741 2.837.641.641 0 0 1-.342 1.183"/>
                    <path data-name="패스 50225" d="M238.934 166.36a.641.641 0 0 1-.457-.191c-1.93-1.96-1.816-5.282-1.81-5.422a.607.607 0 0 1 .667-.614.642.642 0 0 1 .615.665c0 .029-.095 2.911 1.442 4.47a.641.641 0 0 1-.457 1.09"/>
                    <path data-name="패스 50226" d="M236.215 166.36a.631.631 0 0 1-.342-.1c-2.4-1.513-2.342-5.161-2.338-5.315a.641.641 0 0 1 .641-.626h.014a.64.64 0 0 1 .627.654c0 .03-.039 3.079 1.741 4.2a.641.641 0 0 1-.342 1.183"/>
                    <path data-name="패스 50227" d="M283.802 166.36a.625.625 0 0 1-.342-.1 4.737 4.737 0 0 1-2.338-3.965.641.641 0 0 1 1.281.044 3.47 3.47 0 0 0 1.741 2.837.641.641 0 0 1-.342 1.183"/>
                    <path data-name="패스 50228" d="M289.241 166.36a.641.641 0 0 1-.457-.191c-1.932-1.96-1.817-5.282-1.811-5.422a.642.642 0 0 1 .641-.614h.026a.641.641 0 0 1 .614.665c0 .029-.094 2.911 1.443 4.47a.641.641 0 0 1-.457 1.09"/>
                    <path data-name="패스 50229" d="M286.521 166.36a.632.632 0 0 1-.342-.1c-2.4-1.513-2.342-5.161-2.338-5.315a.641.641 0 0 1 .641-.626h.014a.64.64 0 0 1 .627.654c0 .03-.039 3.079 1.741 4.2a.641.641 0 0 1-.342 1.183"/>
                    <path data-name="패스 50230" d="M356.069 222.545a10.511 10.511 0 1 0 10.511-10.511 10.511 10.511 0 0 0-10.511 10.511" transform="translate(-79.907 -47.584)" style="fill:#fff"/>
                </g>
            </g>
            <g data-name="그룹 4330">
                <g data-name="그룹 4329" style="clip-path:url(#s6ycyv89ek)" transform="translate(324.162 167.727)">
                    <path data-name="패스 50231" d="M-3.503 10.51a8.409 8.409 0 1 0 8.408-8.408 8.408 8.408 0 0 0-8.408 8.408"/>
                </g>
            </g>
            <g data-name="그룹 4332">
                <g data-name="그룹 4331" style="clip-path:url(#6tacdobn7a)" transform="translate(48 3.276)">
                    <path data-name="패스 50233" d="M291.924 222.545a10.511 10.511 0 1 0 10.511-10.511 10.511 10.511 0 0 0-10.511 10.511" transform="translate(-65.512 -47.584)" style="fill:#fff"/>
                </g>
            </g>
            <g data-name="그룹 4334">
                <g data-name="그룹 4333" style="clip-path:url(#d0wzl4kdal)" transform="translate(274.412 167.727)">
                    <path data-name="패스 50234" d="M-3.504 10.51a8.409 8.409 0 1 0 8.408-8.408 8.408 8.408 0 0 0-8.408 8.408"/>
                </g>
            </g>
            <g data-name="그룹 4336">
                <g data-name="그룹 4335" style="clip-path:url(#6tacdobn7a)" transform="translate(48 3.276)">
                    <path data-name="패스 50236" d="M323.81 116.2s-42.437-7.049-54.674 28.3c0 0-11.291 34.972 2.72 59.822 0 0-1.107-10.5 5.438-16.315 0 0 6.154-1.377 7.608-10.1l2.91 8h18.908l.727-18.181 3.636 17.454 3.636-19.635 2.91 20.363 29.817-.727.727-8.727 2.182 8.727h13.09l-1.264-6.64s0 4.363 5.818 8.727c0 0 4.364 2.908 4.364 3.636s4.184 16.142 4.184 16.142 15.62-34.812 5.438-63.9c0 0-16.358-36.031-53.446-27.3z" transform="translate(-59.433 -25.69)" style="fill:#352424"/>
                    <path data-name="패스 50237" d="M416.693 258.31a15.488 15.488 0 0 0-1.841-7.579c-.2-.453-.416-.942-.649-1.481l.313-.134c.231.538.447 1.026.647 1.477a15.928 15.928 0 0 1 1.871 7.714z" transform="translate(-92.953 -55.905)" style="fill:#594343"/>
                    <path data-name="패스 50238" d="m400.246 292.929-.145-.012a7.31 7.31 0 0 1-5.771-4.479 10.815 10.815 0 0 1-.873-4.228 27.11 27.11 0 0 0-4.888-.883l.036-.337a27.836 27.836 0 0 1 4.851.866 16.737 16.737 0 0 1 .289-2.865 20.588 20.588 0 0 1 2.527-6.74 41.312 41.312 0 0 1 3.828-5.151 47 47 0 0 0 3.389-4.453c2.115-3.3 3.907-11.461 2.039-14.907l.3-.162c1.954 3.606.157 11.809-2.052 15.253a47 47 0 0 1-3.412 4.486 40.968 40.968 0 0 0-3.79 5.108 20.179 20.179 0 0 0-2.486 6.628 16.127 16.127 0 0 0-.285 2.907 12.175 12.175 0 0 1 3.009 1.4c2.2 1.444 4.229 4.385 3.475 7.43zm-6.446-8.612a10.422 10.422 0 0 0 .84 3.983 7.01 7.01 0 0 0 5.345 4.263c.616-2.833-1.3-5.563-3.364-6.921a11.769 11.769 0 0 0-2.82-1.325" transform="translate(-87.201 -56.008)" style="fill:#594343"/>
                    <path data-name="패스 50239" d="M362.889 183.385a.844.844 0 0 1-.212-.027 2.3 2.3 0 0 1-1.315-1.527 23.2 23.2 0 0 1 .574-14.219 180.2 180.2 0 0 0-9.641-40.04l.319-.116a180.559 180.559 0 0 1 9.58 39.474 22.384 22.384 0 0 1 4.841-7.5l.24.24a22.148 22.148 0 0 0-4.992 7.983q.931 7.639 1.212 15.366v.074l-.053.053a.777.777 0 0 1-.558.244m-.859-15a22.756 22.756 0 0 0-.34 13.352 2 2 0 0 0 1.073 1.294.428.428 0 0 0 .392-.081q-.268-7.316-1.124-14.564" transform="translate(-79.06 -28.603)" style="fill:#594343"/>
                    <path data-name="패스 50240" d="M393.674 186.788c-2.915-.524-5.659-2.771-7.339-6.008a32.421 32.421 0 0 1-2.649-9.292c-1.556-8.653-3.486-19.4-8.032-28.7-4.914-10.055-12.364-17.17-20.978-20.033l.109-.323c8.7 2.892 16.22 10.069 21.174 20.207 4.567 9.342 6.5 20.11 8.057 28.764a32.25 32.25 0 0 0 2.62 9.215 10.575 10.575 0 0 0 7.1 5.832z" transform="translate(-79.595 -27.476)" style="fill:#594343"/>
                    <path data-name="패스 50241" d="m399.017 174.455-3.381-13.205c-1.962-7.671-3.993-15.6-7.975-22.612-4.459-7.849-10.792-13.188-17.835-15.034l.085-.329c7.132 1.868 13.541 7.266 18.046 15.2 4.005 7.051 6.04 15 8.009 22.7l3.381 13.206z" transform="translate(-82.994 -27.665)" style="fill:#594343"/>
                    <path data-name="패스 50242" d="M405.55 165.023a58.457 58.457 0 0 0-9.724-26.664l.282-.191a58.8 58.8 0 0 1 9.779 26.82z" transform="translate(-88.829 -31.007)" style="fill:#594343"/>
                    <path data-name="패스 50243" d="m419.556 196.979-.337-.039c2.1-18.263-1.589-35-10.377-47.118l.275-.2c8.839 12.189 12.546 29.007 10.439 47.356" transform="translate(-91.75 -33.578)" style="fill:#594343"/>
                    <path data-name="패스 50244" d="M343.54 179.871c-3.969-6.407-4.062-14.621-4.138-21.219-.112-9.8-.24-20.9 3.447-30.8l.318.119c-3.665 9.844-3.537 20.913-3.425 30.679.074 6.557.168 14.717 4.085 21.045z" transform="translate(-76.158 -28.691)" style="fill:#594343"/>
                    <path data-name="패스 50245" d="M350.025 175.755a139.151 139.151 0 0 1-2.675-28.049h.34a138.86 138.86 0 0 0 2.666 27.98z" transform="translate(-77.95 -33.147)" style="fill:#594343"/>
                    <path data-name="패스 50246" d="m277.133 168.758-.337-.036c1-9.44 4.184-22.919 13.626-33.525 8.705-9.779 21.288-14.805 32.834-13.121l-.05.336c-11.434-1.664-23.9 3.316-32.53 13.01-9.383 10.539-12.543 23.945-13.542 33.335" transform="translate(-62.117 -27.324)" style="fill:#594343"/>
                    <path data-name="패스 50247" d="M312.109 185.606c-.078-9.172-.157-18.656 2.123-27.733 2.553-10.168 7.912-18.25 15.085-22.753l.18.288c-7.1 4.457-12.4 12.465-14.936 22.549-2.269 9.034-2.189 18.5-2.112 27.647z" transform="translate(-70.035 -30.323)" style="fill:#594343"/>
                    <path data-name="패스 50248" d="m277.851 189.493-.152-.3a13.893 13.893 0 0 0 6.529-6.979 27.828 27.828 0 0 0 1.417-5.244c.111-.548.221-1.1.342-1.642a83.1 83.1 0 0 1 5.384-15.163c5.173-11.823 11.5-23.4 22.7-28.034l.13.314c-11.089 4.587-17.377 16.1-22.521 27.856a82.712 82.712 0 0 0-5.366 15.1c-.12.544-.23 1.09-.341 1.636a27.977 27.977 0 0 1-1.438 5.308 14.238 14.238 0 0 1-6.689 7.152" transform="translate(-62.32 -29.651)" style="fill:#594343"/>
                    <path data-name="패스 50249" d="M283.127 292.436a1.87 1.87 0 0 1-.32-.028l.058-.334a1.492 1.492 0 0 0 1.2-.315 4.194 4.194 0 0 0 1.305-2.764c.39-4.06-1.166-8.478-4.759-13.505-.836-1.171-1.736-2.334-2.606-3.458a46.593 46.593 0 0 1-5.751-8.709c-1.872-4.046-2.538-8.591-3.015-12.533a190.683 190.683 0 0 1-1.226-15.264l.34-.014c.2 5.061.611 10.187 1.223 15.237.473 3.917 1.135 8.431 2.985 12.432a46.429 46.429 0 0 0 5.712 8.644c.872 1.127 1.774 2.292 2.614 3.468 3.642 5.1 5.218 9.591 4.82 13.736a4.5 4.5 0 0 1-1.436 3 1.849 1.849 0 0 1-1.14.406" transform="translate(-60.145 -52.852)" style="fill:#594343"/>
                    <path data-name="패스 50250" d="M271.213 285.968a18.912 18.912 0 0 0-1.3-4.909 68.036 68.036 0 0 1-.451-1.263 36.582 36.582 0 0 1-1.878-14.344l.339.024a36.252 36.252 0 0 0 1.86 14.209c.144.42.3.838.45 1.257a19.088 19.088 0 0 1 1.32 5z" transform="translate(-60.029 -59.571)" style="fill:#594343"/>
                    <path data-name="패스 50251" d="M248.006 299.777a5.556 5.556 0 0 1 2.449.341 9.43 9.43 0 0 1 4.206 2.78c2.128 2.419 3.164 5.583 4.137 8.655s1.989 6.239 4.09 8.681c.13.151-7.843 6.055-9.57 5.581-3.087-.848-4.67-4.1-7.484-5.452-2.521-1.208-5.372-1.293-8.055-1.926-5.99-1.414-9.976-6.479-11.832-12.171-.678-2.081-1.023-5.05.3-6.972 1.075-1.566 3.834-1.7 5.573-1.764a9.138 9.138 0 0 1 5.733 1.857c3.206 2.271 6.6 4.822 10.526 4.846-1.28-.008-1.848-1.589-2.056-2.619 0 0-.224-1.505 1.986-1.837" transform="translate(-50.571 -66.769)" style="fill:#f3cfbd"/>
                    <path data-name="패스 50252" d="M255.9 323.961c-1.809 1.135-3.886 3.039-3.04 5 .423.982 1.453 1.522 2.3 2.17 3.626 2.767 4.595 8.293 8.618 10.442 2 1.066 4.37 1.07 6.634 1.048l20.555-.2c-.7-2.743-2.72-4.926-4.716-6.934a169.8 169.8 0 0 0-15.436-13.833c-2.125-1.669-4.391-6.171-6.717-3.844a55.845 55.845 0 0 1-8.2 6.15" transform="translate(-56.702 -71.175)" style="fill:#0a4088"/>
                    <path data-name="패스 50253" d="M281.543 347.379H266.3s-4.467-2.453-10.765-12.467l27.828 10.152z" transform="translate(-57.345 -75.159)" style="fill:#0a4088"/>
                    <path data-name="패스 50254" d="m291.518 331.764-.593 3.243 4.813 4.7z" transform="translate(-65.288 -74.453)" style="fill:#093b72"/>
                    <path data-name="패스 50255" d="M255.333 316.5a4.23 4.23 0 0 0 1.216.926c-.309-.474-.548-.992-.876-1.451a4.494 4.494 0 0 0-2.99-1.809 4.02 4.02 0 0 0-2.713.516c.708.365 1.9.134 2.723.369a6.687 6.687 0 0 1 2.64 1.448" transform="translate(-56.097 -70.495)" style="fill:#e5b4a1"/>
                    <path data-name="패스 50256" d="M252 302.8s.318 3.26 3.42 3.26c0 0-2.187-.315-3.42-3.26" transform="translate(-56.553 -67.952)" style="fill:#e5b4a1"/>
                    <path data-name="패스 50257" d="M245.479 122.842a2.011 2.011 0 0 0-2.84-1.168 4.364 4.364 0 0 0-2.382 2.628l-3.852-1.555a9.082 9.082 0 0 1 5.308-5.494c3.655-1.372 7.107-.7 8.633 3.363s-3.023 7.138-1.194 10.854l-4.532 1.7c-2.391-4.239 1.759-7.931.859-10.328m.192 15.7a3.312 3.312 0 1 1 6.2-2.327 3.314 3.314 0 1 1-6.2 2.327" transform="translate(-53.053 -26.168)" style="fill:#e0d9cc;opacity:.8"/>
                    <path data-name="패스 50258" d="M190.4 47.748a2.4 2.4 0 0 0-1.472-3.354 5.2 5.2 0 0 0-4.219.285l-2.021-4.524a10.832 10.832 0 0 1 9.105-.324c4.273 1.846 6.682 5.28 4.629 10.031s-8.5 3.627-10.008 8.331l-5.3-2.289c1.455-5.619 8.075-5.355 9.285-8.157m-12.826 13.642a3.95 3.95 0 1 1 7.246 3.131 3.951 3.951 0 1 1-7.246-3.131" transform="translate(-39.765 -8.747)" style="fill:#e0d9cc;opacity:.8"/>
                    <path data-name="패스 50259" d="M161.951 49.989a4.226 4.226 0 1 1 3.568 4.964 4.2 4.2 0 0 1-3.568-4.964m3.611-20.14.614-6.336 7.1.959-1.09 6.271L169.34 44l-4.559-.616z" transform="translate(-36.334 -5.277)" style="fill:#e0d9cc;opacity:.8"/>
                </g>
            </g>
        </g>
    </g>
    <g transform="translate(43.125 265.871)">
        <ellipse data-name="타원 146" cx="40.5" cy="28.5" rx="40.5" ry="28.5" transform="translate(-.125 .129)" style="fill:#fff"/>
        <ellipse data-name="타원 151" cx="41.5" cy="28.5" rx="41.5" ry="28.5" transform="translate(158.875 .129)" style="fill:#fff"/>
        <ellipse data-name="타원 147" cx="41" cy="28.5" rx="41" ry="28.5" transform="translate(53.876 .129)" style="fill:#fff"/>
        <ellipse data-name="타원 150" cx="41" cy="28.5" rx="41" ry="28.5" transform="translate(210.875 .129)" style="fill:#fff"/>
        <ellipse data-name="타원 148" cx="41.5" cy="28.5" rx="41.5" ry="28.5" transform="translate(104.875 .129)" style="fill:#fff"/>
        <ellipse data-name="타원 149" cx="40.5" cy="28.5" rx="40.5" ry="28.5" transform="translate(265.875 .129)" style="fill:#fff"/>
    </g>
    <text data-name="프라모델? 피규어? 고민하는 당신을 위해!" transform="translate(217 302)" style="fill:#6f33f9;font-size:17px;font-family:NotoSansKR-Bold,Noto Sans KR;font-weight:700;letter-spacing:-.035em"><tspan x="-138.176" y="0">프라모델? 피규어? 고민하는 당신을 위해!</tspan></text>
</svg>
